<!DOCTYPE svg PUBLIC "-//W3C//DTD SVG 1.1//EN" "http://www.w3.org/Graphics/SVG/1.1/DTD/svg11.dtd">
<!-- Uploaded to: SVG Repo, www.svgrepo.com, Transformed by: SVG Repo Mixer Tools -->
<svg fill="#ffffff" height="800px" width="800px" version="1.1" id="Capa_1" xmlns="http://www.w3.org/2000/svg" xmlns:xlink="http://www.w3.org/1999/xlink" viewBox="0 0 468.837 468.837" xml:space="preserve" stroke="#ffffff">
<g id="SVGRepo_bgCarrier" stroke-width="0"/>
<g id="SVGRepo_tracerCarrier" stroke-linecap="round" stroke-linejoin="round"/>
<g id="SVGRepo_iconCarrier"> <path d="M450.837,330.804h-8.732c-1.649-103.869-79.902-189.462-180.625-202.625c4.35-5.713,6.937-12.84,6.937-20.575 c0-18.778-15.222-34-34-34s-34,15.222-34,34c0,7.735,2.587,14.862,6.937,20.575C106.634,141.342,28.381,226.936,26.732,330.804H18 c-9.925,0-18,8.075-18,18v28.428c0,9.925,8.075,18,18,18h432.837c9.925,0,18-8.075,18-18v-28.428 C468.837,338.879,460.762,330.804,450.837,330.804z"/> </g>
</svg>