<!DOCTYPE svg PUBLIC "-//W3C//DTD SVG 1.1//EN" "http://www.w3.org/Graphics/SVG/1.1/DTD/svg11.dtd">
<!-- Uploaded to: SVG Repo, www.svgrepo.com, Transformed by: SVG Repo Mixer Tools -->
<svg fill="#ffffff" version="1.1" id="Capa_1" xmlns="http://www.w3.org/2000/svg" xmlns:xlink="http://www.w3.org/1999/xlink" width="800px" height="800px" viewBox="0 0 45.586 45.586" xml:space="preserve" stroke="#ffffff">
<g id="SVGRepo_bgCarrier" stroke-width="0"/>
<g id="SVGRepo_tracerCarrier" stroke-linecap="round" stroke-linejoin="round"/>
<g id="SVGRepo_iconCarrier"> <g> <g> <g> <path d="M22.018,15.971l0.57-1.313L10.401,9.643l-0.52,1.334C7.78,16.368,6.33,24.285,8.793,27.176L5.16,36.004L1.939,34.68 c-0.717-0.295-1.539,0.047-1.833,0.765c-0.295,0.717,0.047,1.538,0.764,1.833l9.042,3.72c0.175,0.072,0.355,0.106,0.534,0.106 c0.552,0,1.076-0.329,1.3-0.871c0.295-0.717-0.047-1.538-0.765-1.833L7.76,37.073l3.632-8.828 C15.389,27.922,20.004,20.615,22.018,15.971z M18.843,16.155c-0.667,1.381-1.388,2.643-2.117,3.761l-5.862-2.412 c0.269-1.305,0.643-2.709,1.142-4.163L18.843,16.155z"/> <path d="M22.792,11.975c0.518,0,0.935-0.42,0.935-0.937V5.419c0-0.518-0.417-0.937-0.935-0.937c-0.518,0-0.935,0.419-0.935,0.937 v5.619C21.858,11.555,22.275,11.975,22.792,11.975z"/> <path d="M16.031,10.099l3.548,2.097c0.149,0.088,0.313,0.131,0.476,0.131c0.32,0,0.632-0.165,0.807-0.46 c0.263-0.445,0.116-1.019-0.33-1.282l-3.548-2.098c-0.445-0.262-1.019-0.115-1.283,0.33C15.437,9.261,15.585,9.836,16.031,10.099 z"/> <path d="M22.792,18.501c-0.518,0-0.935,0.419-0.935,0.937v5.621c0,0.517,0.417,0.937,0.935,0.937c0.518,0,0.935-0.42,0.935-0.937 v-5.621C23.727,18.92,23.31,18.501,22.792,18.501z"/> </g> <g> <path d="M34.193,28.245l3.632,8.828l-3.221,1.326c-0.718,0.295-1.061,1.116-0.766,1.833c0.225,0.542,0.748,0.871,1.301,0.871 c0.178,0,0.358-0.034,0.533-0.106l9.042-3.72c0.718-0.295,1.061-1.116,0.765-1.833c-0.295-0.718-1.116-1.06-1.833-0.765 l-3.221,1.324l-3.634-8.828c2.463-2.891,1.014-10.809-1.088-16.199l-0.52-1.334l-12.188,5.015l0.57,1.313 C25.58,20.615,30.195,27.922,34.193,28.245z M33.578,13.342c0.499,1.454,0.874,2.858,1.143,4.163l-5.862,2.412 c-0.729-1.119-1.45-2.38-2.117-3.761L33.578,13.342z"/> <path d="M29.555,10.099l-3.549,2.097c-0.148,0.088-0.312,0.131-0.476,0.131c-0.32,0-0.632-0.165-0.807-0.46 c-0.264-0.445-0.116-1.019,0.33-1.282l3.548-2.098c0.444-0.262,1.019-0.115,1.283,0.33C30.147,9.261,29.999,9.836,29.555,10.099z "/> </g> </g> </g> </g>
</svg>